{"title":"Devil.720p.BRRip.x264.Feel-Free","uid":6027703,"size":1613155940,"categoryP":"video","categoryS":"hd___movies","magnet":"?xt=urn:btih:ff2d6e22b4ed75d91da05e1d20f3383c828f6957&amp;dn=Devil.720p.BRRip.x264.Feel-Free&amp;tr=udp%3A%2F%2Ftracker.openbittorrent.com%3A80&amp;tr=udp%3A%2F%2Fopen.demonii.com%3A1337&amp;tr=udp%3A%2F%2Ftracker.coppersurfer.tk%3A6969&amp;tr=udp%3A%2F%2Fexodus.desync.com%3A6969","seeders":0,"leechers":0,"uploader":"HeroMaster","files":-1,"time":1291977584,"description":"Genre:Horror | Mystery | Thriller\nLanguage:English\nIMDb:http://www.imdb.com/title/tt1314655/\nSource:720p.Bluray.x264-CBGB\n\n\nFormat : Matroska\nFile size : 1.50 GiB\nDuration : 1h 20mn\nOverall bit rate : 2 663 Kbps\n\n\nVideo\nFormat settings, CABAC : Yes\nFormat settings, ReFrames : 4 frames\nCodec ID : V_MPEG4/ISO/AVC\nDuration : 1h 20mn\nBit rate : 2 300 Kbps\nWidth : 1 280 pixels\nHeight : 536 pixels\nDisplay aspect ratio : 2.35:1\nFrame rate mode : Variable\nFrame rate : 23.976 fps\nColor space : YUV\nChroma subsampling : 4:2:0\nBit depth : 8 bits\nScan type : Progressive\nBits/(Pixel*Frame) : 0.140\nStream size : 1.25 GiB (84%)\nWriting library : x264 core 106\n\n\nAudio\nID : 2\nFormat : AC-3\nFormat/Info : Audio Coding 3\nMode extension : CM (complete main)\nCodec ID : A_AC3\nDuration : 1h 20mn\nBit rate mode : Constant\nBit rate : 384 Kbps\nChannel(s) : 6 channels\nChannel positions : Front: L C R, Side: L R, LFE\nSampling rate : 48.0 KHz\nBit depth : 16 bits\nVideo delay : -1mn 5s\nStream size : 221 MiB (14%)\nLanguage : English\n\n\nPlot\nA group of people trapped in an elevator realize that the devil is among them.\n\n\nScreenshots:\n\n &lt;a href=&quot;\nhttp://www.leetleech.org/images/83787591742577122133.png&quot; rel=&quot;nofollow&quot; target=&quot;_NEW&quot;&gt;\nhttp://www.leetleech.org/images/83787591742577122133.png&lt;/a&gt;\n &lt;a href=&quot;\nhttp://www.leetleech.org/images/39209626175117532203.png&quot; rel=&quot;nofollow&quot; target=&quot;_NEW&quot;&gt;\nhttp://www.leetleech.org/images/39209626175117532203.png&lt;/a&gt;\n &lt;a href=&quot;\nhttp://www.leetleech.org/images/52672523131479569670.png&quot; rel=&quot;nofollow&quot; target=&quot;_NEW&quot;&gt;\nhttp://www.leetleech.org/images/52672523131479569670.png&lt;/a&gt;\n\n\nENJOY!","torrent":{"xt":"urn:btih:ff2d6e22b4ed75d91da05e1d20f3383c828f6957","amp;dn":"Devil.720p.BRRip.x264.Feel-Free","amp;tr":["udp%3A%2F%2Ftracker.openbittorrent.com%3A80","udp%3A%2F%2Fopen.demonii.com%3A1337","udp%3A%2F%2Ftracker.coppersurfer.tk%3A6969","udp%3A%2F%2Fexodus.desync.com%3A6969"],"infoHash":"ff2d6e22b4ed75d91da05e1d20f3383c828f6957","infoHashBuffer":{"type":"Buffer","data":[255,45,110,34,180,237,117,217,29,160,94,29,32,243,56,60,130,143,105,87]},"announce":[],"urlList":[]}}